Coordinates
version=1
nRows=21
nColumns=34
inDegrees=no

Units are S.I. units (second, meters, Newtons, ...)
If the header above contains a line with 'inDegrees', this indicates whether rotational values are in degrees (yes) or radians (no).

endheader
time	pelvis_tilt	pelvis_list	pelvis_rotation	pelvis_tx	pelvis_ty	pelvis_tz	hip_flexion_r	hip_adduction_r	hip_rotation_r	knee_angle_r	ankle_angle_r	subtalar_angle_r	mtp_angle_r	hip_flexion_l	hip_adduction_l	hip_rotation_l	knee_angle_l	ankle_angle_l	subtalar_angle_l	mtp_angle_l	lumbar_extension	lumbar_bending	lumbar_rotation	arm_flex_r	arm_add_r	arm_rot_r	elbow_flex_r	pro_sup_r	arm_flex_l	arm_add_l	arm_rot_l	elbow_flex_l	pro_sup_l
0.47	0.227461	-0.0297551	0.0756674	0.338582	1.07655	-0.202241	-0.357687	0.144103	0.0114646	0.0439799	0.227548	0.091119	-0.0671931	0.251275	-0.113559	-0.163521	0.505472	0.228079	0.0750821	-0.0813589	-0.482066	-0.0264861	0.161105	0.00756518	-0.281561	-0.340144	0.960571	2.08794	-0.258171	-0.122854	-0.230662	0.468852	2.03648
0.48	0.228456	-0.0274066	0.069018	0.351654	1.07491	-0.202361	-0.374106	0.140018	0.013541	0.0447965	0.242729	0.099549	-0.0672004	0.248307	-0.105616	-0.190405	0.446336	0.236301	0.122735	-0.0812895	-0.483924	-0.0306911	0.165015	0.0204025	-0.290013	-0.331657	0.973052	2.0921	-0.27345	-0.115467	-0.236267	0.456608	2.03895
0.49	0.229593	-0.0250211	0.063239	0.364829	1.07313	-0.202624	-0.390108	0.13583	0.01311	0.0467401	0.25848	0.109561	-0.0672078	0.244481	-0.0965233	-0.21668	0.388148	0.244667	0.173555	-0.0812201	-0.485716	-0.034428	0.167976	0.0325666	-0.298152	-0.323248	0.985358	2.09745	-0.288931	-0.108107	-0.241868	0.446275	2.0401
0.5	0.230814	-0.0226045	0.0581715	0.378124	1.07123	-0.203012	-0.405481	0.131475	0.0101287	0.0500827	0.274693	0.121332	-0.0672152	0.240002	-0.0863061	-0.241741	0.331665	0.25241	0.224827	-0.0811507	-0.487375	-0.0377755	0.170296	0.0438148	-0.305917	-0.315236	0.997608	2.10378	-0.304355	-0.10087	-0.247196	0.437583	2.04012
0.51	0.232083	-0.020205	0.0536051	0.391563	1.06924	-0.203507	-0.420056	0.126918	0.00471042	0.0550548	0.291173	0.134931	-0.0672226	0.235072	-0.0751595	-0.26501	0.277819	0.258971	0.273855	-0.0810812	-0.488842	-0.0407972	0.172349	0.0538953	-0.31325	-0.307928	1.00991	2.11084	-0.319458	-0.0938493	-0.252024	0.430231	2.03928
0.52	0.233381	-0.0179043	0.0493125	0.405161	1.06719	-0.204084	-0.433728	0.122154	-0.00287887	0.0618087	0.307632	0.150288	-0.06723	0.229895	-0.0634358	-0.285989	0.227707	0.264086	0.318295	-0.0810116	-0.490068	-0.0435373	0.174514	0.062565	-0.320083	-0.3016	1.02233	2.11835	-0.333997	-0.0871323	-0.2562	0.423932	2.03787
0.53	0.234707	-0.0157989	0.0450816	0.418935	1.06511	-0.204712	-0.446458	0.117203	-0.0122402	0.0704004	0.323699	0.167181	-0.0672375	0.22467	-0.0516032	-0.304326	0.182536	0.267802	0.356445	-0.0809421	-0.491012	-0.0460265	0.177125	0.0696056	-0.326336	-0.296477	1.03491	2.12602	-0.347767	-0.0807953	-0.259658	0.418438	2.03618
0.54	0.23607	-0.0139728	0.0407427	0.432902	1.06304	-0.205359	-0.45827	0.11209	-0.0228823	0.0807951	0.338952	0.185233	-0.0672449	0.219578	-0.0401796	-0.319875	0.143517	0.270407	0.387425	-0.0808725	-0.491641	-0.0482959	0.180423	0.0748373	-0.331907	-0.292721	1.04766	2.1336	-0.360616	-0.0749003	-0.262428	0.413568	2.03442
0.55	0.23748	-0.0124689	0.0361838	0.447076	1.06102	-0.205992	-0.469218	0.106828	-0.0342798	0.0928967	0.352947	0.203951	-0.0672524	0.214758	-0.029646	-0.332706	0.111711	0.2723	0.411205	-0.0808028	-0.49193	-0.0503968	0.184526	0.0781282	-0.336678	-0.290416	1.0605	2.14088	-0.372446	-0.0694941	-0.264622	0.409212	2.03281
0.56	0.23895	-0.0112629	0.0313544	0.461473	1.0591	-0.206583	-0.479367	0.101382	-0.0459443	0.106596	0.365262	0.222779	-0.0672598	0.210267	-0.0203535	-0.343065	0.0878419	0.273821	0.428467	-0.0807331	-0.49186	-0.0524202	0.18942	0.0793999	-0.340516	-0.289575	1.07332	2.1477	-0.383208	-0.0646082	-0.26641	0.405322	2.03148
0.57	0.240489	-0.0102463	0.0262575	0.476095	1.05732	-0.20711	-0.488761	0.0956515	-0.0574933	0.121824	0.375517	0.24117	-0.0672673	0.206048	-0.0124424	-0.351262	0.0721244	0.275088	0.440322	-0.0806634	-0.491426	-0.0545112	0.194963	0.0786302	-0.343285	-0.290135	1.08596	2.15398	-0.392888	-0.0602592	-0.267988	0.401896	2.03053
0.58	0.24211	-0.00922613	0.0209356	0.490956	1.05567	-0.207563	-0.497394	0.0894533	-0.068702	0.138604	0.383377	0.258651	-0.0672748	0.201904	-0.00579637	-0.357531	0.0641458	0.275879	0.44795	-0.0805937	-0.49064	-0.0568716	0.200906	0.075856	-0.344855	-0.291969	1.0982	2.15969	-0.401502	-0.0564496	-0.269548	0.398958	2.03
0.59	0.243834	-0.00792053	0.0154529	0.506066	1.05421	-0.207955	-0.505193	0.0825302	-0.0795197	0.157087	0.388531	0.274851	-0.0672823	0.197509	-5.27326e-05	-0.361916	0.0628482	0.275604	0.452286	-0.0805239	-0.489529	-0.0597405	0.206926	0.0711743	-0.345118	-0.294892	1.10978	2.16482	-0.40908	-0.0531676	-0.271249	0.396536	2.02993
0.6	0.245682	-0.00602325	0.00988726	0.521427	1.05293	-0.2083	-0.512	0.0745639	-0.0900572	0.177571	0.390649	0.289515	-0.0672898	0.192447	0.00534885	-0.364249	0.0666466	0.27338	0.453819	-0.0804541	-0.488134	-0.0633751	0.212654	0.0647428	-0.343999	-0.298672	1.12043	2.16938	-0.415654	-0.0503878	-0.273195	0.394655	2.03028
0.61	0.247665	-0.00323444	0.00432159	0.537028	1.05187	-0.208618	-0.517559	0.0652137	-0.100546	0.200502	0.389333	0.302483	-0.0672973	0.186307	0.0110558	-0.364226	0.0736663	0.268216	0.452585	-0.0803842	-0.486507	-0.0680083	0.217707	0.0567775	-0.341464	-0.303039	1.12986	2.17341	-0.421257	-0.0480719	-0.275428	0.393325	2.03098
0.62	0.249772	0.000691226	-0.00115847	0.552844	1.05103	-0.208934	-0.5215	0.0541623	-0.111273	0.226455	0.384072	0.313653	-0.0673048	0.178787	0.017668	-0.361585	0.0820639	0.259243	0.448319	-0.0803144	-0.484691	-0.073807	0.221721	0.0475461	-0.337525	-0.307701	1.13777	2.17692	-0.425911	-0.0461704	-0.277922	0.392544	2.03194
0.63	0.25195	0.00590347	-0.00646464	0.568831	1.05042	-0.209269	-0.523339	0.0411638	-0.122493	0.256089	0.374223	0.322923	-0.0673123	0.169804	0.0256058	-0.356303	0.0903511	0.245961	0.44072	-0.0802445	-0.48271	-0.0808343	0.224378	0.0373547	-0.332246	-0.312361	1.14394	2.17993	-0.429622	-0.0446254	-0.280602	0.392307	2.03301
0.64	0.254085	0.0124327	-0.0115072	0.58493	1.05004	-0.209644	-0.522488	0.0260828	-0.134352	0.290085	0.359022	0.33013	-0.0673198	0.159558	0.0350151	-0.348751	0.0976406	0.228417	0.429726	-0.0801745	-0.480554	-0.0890274	0.225429	0.0265295	-0.325733	-0.316734	1.14814	2.18246	-0.432385	-0.0433757	-0.283352	0.392613	2.03405
0.65	0.255981	0.0201782	-0.0161963	0.60107	1.04988	-0.210071	-0.518301	0.0089127	-0.146826	0.329054	0.337645	0.335019	-0.0673274	0.148538	0.04574	-0.339745	0.10375	0.207272	0.415698	-0.0801046	-0.478184	-0.0982038	0.224709	0.0153965	-0.318132	-0.320571	1.15025	2.18455	-0.434169	-0.0423633	-0.28604	0.393472	2.03493
0.66	0.257404	0.0289136	-0.0204449	0.617169	1.04991	-0.210554	-0.510125	-0.0102321	-0.15969	0.373443	0.309321	0.337248	-0.0673349	0.137454	0.0573717	-0.330448	0.109132	0.183746	0.399481	-0.0800346	-0.475526	-0.108096	0.222145	0.00426024	-0.309617	-0.323676	1.15019	2.18622	-0.434925	-0.0415419	-0.288526	0.394908	2.03551
0.67	0.258125	0.0383496	-0.024183	0.633137	1.05012	-0.211091	-0.497384	-0.0311326	-0.17254	0.423426	0.273497	0.336428	-0.0673425	0.127115	0.0693513	-0.322169	0.114656	0.159441	0.382296	-0.0799645	-0.472496	-0.118391	0.217757	-0.00661303	-0.300375	-0.32592	1.14795	2.18753	-0.434579	-0.0408843	-0.290679	0.396955	2.03574
